<?xml version="1.0" encoding="utf-8"?>
<!-- Generator: Adobe Illustrator 16.0.0, SVG Export Plug-In . SVG Version: 6.00 Build 0)  -->
<!DOCTYPE svg PUBLIC "-//W3C//DTD SVG 1.1//EN" "http://www.w3.org/Graphics/SVG/1.1/DTD/svg11.dtd">
<svg version="1.1" id="Layer_1" xmlns="http://www.w3.org/2000/svg" xmlns:xlink="http://www.w3.org/1999/xlink" x="0px" y="0px"
	 width="205.844px" height="133.547px" viewBox="0 0 205.844 133.547" enable-background="new 0 0 205.844 133.547"
	 xml:space="preserve">
<g>
	<g>
		<polygon fill="#262262" points="150.379,69.797 150.379,44.193 175.987,44.193 175.987,32.814 150.379,32.814 139.006,32.814 
			139.001,32.814 139.001,63.75 138.973,63.75 138.973,100.732 139.006,100.732 150.353,100.732 175.987,100.732 175.987,89.354 
			150.353,89.354 150.353,69.797 		"/>
		<path fill="#818285" d="M98.293,32.814H86.915v11.378v14.224v11.38v30.936h11.379V75.468l19.023,25.265h12.268l-21.84-30.936
			h10.46h11.38v-11.38V44.193V32.814h-11.38H98.293z M118.205,58.417H98.293V44.193h19.911V58.417z"/>
	</g>
	<path fill="#262262" d="M57.056,0v14.598H0v20.872h57.056h10.186v20.87H57.056h-39.85v20.869h39.85v20.87H8.173v20.869h48.883v14.6
		h148.788V0H57.056z M184.974,112.675H77.928V20.87h107.046V112.675z"/>
</g>
</svg>
