<?xml version="1.0" encoding="utf-8"?>
<!-- Generator: Adobe Illustrator 16.0.0, SVG Export Plug-In . SVG Version: 6.00 Build 0)  -->
<!DOCTYPE svg PUBLIC "-//W3C//DTD SVG 1.1//EN" "http://www.w3.org/Graphics/SVG/1.1/DTD/svg11.dtd">
<svg version="1.1" id="Layer_1" xmlns="http://www.w3.org/2000/svg" xmlns:xlink="http://www.w3.org/1999/xlink" x="0px" y="0px"
	 width="426.585px" height="120.646px" viewBox="0 0 426.585 120.646" enable-background="new 0 0 426.585 120.646"
	 xml:space="preserve">
<g>
	<g>
		<polygon fill="#262262" points="135.854,63.055 135.854,39.924 158.987,39.924 158.987,29.645 135.854,29.645 125.579,29.645 
			125.574,29.645 125.574,57.592 125.549,57.592 125.549,91.002 125.579,91.002 135.829,91.002 158.987,91.002 158.987,80.723 
			135.829,80.723 135.829,63.055 		"/>
		<path fill="#818285" d="M88.799,29.645h-10.28v10.279v12.85v10.281v27.947h10.28V68.178l17.186,22.824h11.083l-19.73-27.947h9.449
			h10.281V52.773v-12.85V29.645h-10.281H88.799z M106.786,52.773H88.799v-12.85h17.987V52.773z"/>
	</g>
	<path fill="#262262" d="M51.545,0v13.188H0v18.855h51.545h9.202v18.854h-9.202H15.544V69.75h36.001v18.854H7.384v18.854h44.161
		v13.189H185.96V0H51.545z M167.106,101.791H70.4V18.854h96.706V101.791z"/>
	<g>
		<path fill="#818285" d="M242.084,63.344c0.753-0.298,1.472-0.639,2.153-1.023c1.729-0.974,3.223-2.189,4.439-3.612
			c1.224-1.431,2.173-3.086,2.821-4.921c0.645-1.824,0.972-3.837,0.972-5.982c0-2.487-0.488-4.932-1.453-7.265
			c-0.977-2.362-2.43-4.406-4.338-6.092c-1.114-0.954-2.315-1.717-3.572-2.266c-1.219-0.529-2.521-0.933-3.872-1.197
			c-1.314-0.256-2.714-0.425-4.16-0.5c-1.406-0.072-2.899-0.109-4.438-0.109h-26.753v59.981h10.555V66.011h12.486
			c1.296,0,2.535,0.198,3.682,0.589c1.152,0.393,2.208,0.949,3.14,1.654c0.941,0.713,1.782,1.573,2.498,2.555
			c0.72,0.992,1.309,2.099,1.74,3.264l5.705,16.285h11.41l-6.396-17.527C247.058,68.472,244.839,65.297,242.084,63.344z
			 M241.656,47.805c0,1.611-0.219,2.979-0.649,4.064c-0.4,1.005-1.007,1.79-1.857,2.402c-0.901,0.649-2.102,1.131-3.569,1.431
			c-1.576,0.324-3.501,0.488-5.72,0.488h-15.422V39.678h16.544c3.725,0,6.493,0.686,8.229,2.036
			C240.856,42.995,241.656,44.987,241.656,47.805z"/>
		<path fill="#818285" d="M298.595,64.684c0,3.649-0.303,6.643-0.9,8.897c-0.566,2.138-1.399,3.812-2.479,4.977
			c-1.063,1.15-2.347,1.912-3.925,2.332c-1.705,0.453-3.725,0.684-6.003,0.684c-2.25,0-4.255-0.23-5.961-0.685
			c-1.579-0.419-2.865-1.177-3.93-2.315c-1.079-1.153-1.928-2.824-2.521-4.966c-0.622-2.245-0.938-5.247-0.938-8.924V30.376h-10.555
			v34.437c0,1.93,0.066,3.916,0.197,5.905c0.136,2.061,0.464,4.088,0.975,6.024c0.521,1.977,1.299,3.866,2.312,5.615
			c1.05,1.813,2.51,3.413,4.339,4.753c1.804,1.322,4.056,2.374,6.692,3.125c2.601,0.74,5.76,1.115,9.39,1.115
			c4.597,0,8.478-0.608,11.535-1.809c3.13-1.23,5.651-3.044,7.494-5.392c1.816-2.313,3.104-5.159,3.826-8.463
			c0.696-3.187,1.049-6.846,1.049-10.875V30.376h-10.598V64.684z"/>
		<polygon fill="#818285" points="356.483,71.913 329.004,30.376 318.884,30.376 318.884,90.357 329.05,90.357 329.05,48.879 
			356.661,90.357 366.692,90.357 366.692,30.376 356.483,30.376 		"/>
		<path fill="#818285" d="M415.715,70.644c-0.155,1.836-0.594,3.462-1.305,4.832c-0.706,1.361-1.656,2.53-2.825,3.473
			c-1.181,0.952-2.605,1.682-4.237,2.169c-1.68,0.503-3.575,0.758-5.635,0.758c-2.597,0-4.978-0.473-7.076-1.403
			c-2.076-0.921-3.866-2.283-5.321-4.051c-1.478-1.794-2.642-4.054-3.457-6.716c-0.83-2.706-1.251-5.863-1.251-9.382
			c0-3.546,0.421-6.709,1.25-9.4c0.815-2.646,1.983-4.888,3.473-6.667c1.465-1.751,3.269-3.101,5.362-4.012
			c2.114-0.92,4.535-1.387,7.193-1.387c1.941,0,3.771,0.255,5.438,0.757c1.631,0.491,3.07,1.203,4.277,2.112
			c1.184,0.896,2.153,1.993,2.884,3.264c0.715,1.245,1.129,2.674,1.229,4.247l0.09,1.405h10.782l-0.154-1.641
			c-0.278-2.968-1.137-5.708-2.549-8.144c-1.401-2.418-3.236-4.512-5.454-6.222c-2.196-1.692-4.743-3.021-7.57-3.949
			c-2.816-0.923-5.85-1.392-9.016-1.392c-4.212,0-8.099,0.745-11.553,2.214c-3.469,1.477-6.464,3.601-8.901,6.313
			c-2.427,2.7-4.322,6.003-5.635,9.818c-1.3,3.781-1.959,8.049-1.959,12.683c0,4.635,0.651,8.9,1.937,12.678
			c1.295,3.815,3.184,7.126,5.611,9.841c2.438,2.729,5.436,4.855,8.91,6.319c3.453,1.453,7.353,2.189,11.59,2.189
			c3.303,0,6.417-0.451,9.256-1.342c2.872-0.901,5.428-2.247,7.596-4c2.178-1.761,3.962-3.936,5.303-6.463
			c1.34-2.526,2.16-5.436,2.436-8.647l0.141-1.629h-10.741L415.715,70.644z"/>
	</g>
</g>
</svg>
