<?xml version="1.0" encoding="utf-8"?>
<!-- Generator: Adobe Illustrator 16.0.0, SVG Export Plug-In . SVG Version: 6.00 Build 0)  -->
<!DOCTYPE svg PUBLIC "-//W3C//DTD SVG 1.1//EN" "http://www.w3.org/Graphics/SVG/1.1/DTD/svg11.dtd">
<svg version="1.1" id="Layer_1" xmlns="http://www.w3.org/2000/svg" xmlns:xlink="http://www.w3.org/1999/xlink" x="0px" y="0px"
	 width="186.01px" height="171.334px" viewBox="0 0 186.01 171.334" enable-background="new 0 0 186.01 171.334"
	 xml:space="preserve">
<g>
	<g>
		<g>
			<polygon fill="#262262" points="135.854,63.055 135.854,39.924 158.988,39.924 158.988,29.645 135.854,29.645 125.58,29.645 
				125.574,29.645 125.574,57.592 125.549,57.592 125.549,91.002 125.58,91.002 135.83,91.002 158.988,91.002 158.988,80.723 
				135.83,80.723 135.83,63.055 			"/>
			<path fill="#818285" d="M88.799,29.645H78.52v10.279v12.85v10.281v27.947h10.279V68.178l17.186,22.824h11.084l-19.73-27.947
				h9.449h10.281V52.773v-12.85V29.645h-10.281H88.799z M106.787,52.773H88.799v-12.85h17.988V52.773z"/>
		</g>
		<path fill="#262262" d="M51.545,0v13.188H0v18.855h51.545h9.203v18.854h-9.203h-36V69.75h36v18.854H7.385v18.854h44.16v13.189
			h134.416V0H51.545z M167.107,101.791H70.4V18.854h96.707V101.791z"/>
	</g>
	<g>
		<path fill="#818285" d="M74.613,154.425c0.455-0.18,0.889-0.386,1.301-0.618c1.043-0.588,1.945-1.322,2.68-2.182
			c0.738-0.863,1.313-1.863,1.703-2.971c0.389-1.102,0.588-2.316,0.588-3.612c0-1.502-0.295-2.978-0.877-4.387
			c-0.59-1.426-1.469-2.659-2.619-3.678c-0.674-0.576-1.4-1.036-2.158-1.368c-0.734-0.319-1.521-0.562-2.338-0.723
			c-0.793-0.154-1.639-0.256-2.512-0.302c-0.85-0.043-1.75-0.065-2.68-0.065H51.549v36.215h6.373v-14.7h7.539
			c0.781,0,1.531,0.12,2.223,0.355c0.695,0.237,1.332,0.574,1.895,0.999c0.57,0.431,1.078,0.949,1.508,1.543
			c0.438,0.599,0.791,1.268,1.051,1.971l3.445,9.832h6.889l-3.861-10.583C77.617,157.52,76.277,155.604,74.613,154.425z
			 M74.355,145.042c0,0.974-0.133,1.799-0.393,2.454c-0.242,0.606-0.607,1.081-1.121,1.45c-0.545,0.393-1.268,0.684-2.156,0.864
			c-0.951,0.195-2.111,0.295-3.451,0.295h-9.313v-9.971h9.988c2.248,0,3.922,0.414,4.969,1.229
			C73.873,142.139,74.355,143.341,74.355,145.042z"/>
		<path fill="#818285" d="M108.732,155.233c0,2.203-0.182,4.01-0.543,5.372c-0.342,1.29-0.846,2.301-1.496,3.005
			c-0.643,0.694-1.418,1.154-2.371,1.408c-1.029,0.272-2.248,0.412-3.623,0.412c-1.359,0-2.568-0.14-3.6-0.414
			c-0.953-0.252-1.73-0.71-2.373-1.397c-0.65-0.696-1.164-1.705-1.521-2.998c-0.377-1.355-0.566-3.168-0.566-5.388V134.52h-6.373
			v20.791c0,1.165,0.041,2.365,0.119,3.566c0.082,1.243,0.281,2.468,0.59,3.637c0.313,1.193,0.783,2.334,1.395,3.391
			c0.635,1.096,1.516,2.062,2.619,2.87c1.09,0.797,2.449,1.434,4.041,1.886c1.57,0.447,3.479,0.674,5.67,0.674
			c2.775,0,5.117-0.367,6.965-1.093c1.889-0.742,3.412-1.838,4.525-3.255c1.096-1.396,1.873-3.114,2.309-5.109
			c0.42-1.924,0.633-4.133,0.633-6.566V134.52h-6.398V155.233z"/>
		<polygon fill="#818285" points="143.686,159.598 127.092,134.52 120.984,134.52 120.984,170.734 127.121,170.734 127.121,145.691 
			143.793,170.734 149.848,170.734 149.848,134.52 143.686,134.52 		"/>
		<path fill="#818285" d="M179.447,158.831c-0.094,1.109-0.359,2.091-0.789,2.918c-0.426,0.821-1,1.527-1.705,2.097
			c-0.713,0.575-1.572,1.016-2.559,1.31c-1.014,0.304-2.158,0.457-3.402,0.457c-1.566,0-3.004-0.285-4.271-0.847
			c-1.254-0.557-2.334-1.379-3.213-2.445c-0.893-1.084-1.596-2.447-2.088-4.056c-0.5-1.633-0.756-3.54-0.756-5.664
			c0-2.142,0.256-4.051,0.756-5.676c0.492-1.598,1.197-2.95,2.096-4.025c0.885-1.057,1.975-1.871,3.238-2.422
			c1.275-0.555,2.738-0.838,4.344-0.838c1.172,0,2.275,0.154,3.283,0.457c0.984,0.297,1.854,0.728,2.582,1.276
			c0.715,0.54,1.301,1.203,1.74,1.97c0.432,0.752,0.682,1.614,0.742,2.564l0.055,0.848h6.51l-0.094-0.99
			c-0.168-1.791-0.686-3.446-1.537-4.916c-0.848-1.46-1.955-2.725-3.295-3.756c-1.326-1.022-2.863-1.825-4.57-2.386
			c-1.699-0.558-3.531-0.84-5.443-0.84c-2.543,0-4.889,0.45-6.975,1.337c-2.096,0.892-3.902,2.174-5.375,3.812
			c-1.465,1.63-2.609,3.623-3.4,5.927c-0.787,2.283-1.184,4.86-1.184,7.658s0.393,5.374,1.168,7.654
			c0.783,2.304,1.922,4.303,3.389,5.941c1.473,1.648,3.281,2.933,5.379,3.815c2.086,0.877,4.441,1.322,6.998,1.322
			c1.994,0,3.875-0.272,5.588-0.81c1.734-0.545,3.277-1.357,4.586-2.415c1.314-1.063,2.393-2.377,3.203-3.903
			c0.809-1.524,1.303-3.281,1.469-5.221l0.086-0.983h-6.484L179.447,158.831z"/>
	</g>
</g>
</svg>
